<svg width="23" height="19" viewBox="0 0 23 19" fill="none" xmlns="http://www.w3.org/2000/svg">
<path d="M0.929293 4.00628e-05C0.682829 4.00628e-05 0.44646 0.100129 0.272184 0.278288C0.0979073 0.456447 0 0.698083 0 0.950038C0 1.20199 0.0979073 1.44363 0.272184 1.62179C0.44646 1.79995 0.682829 1.90004 0.929293 1.90004H2.99232L5.43079 11.875C5.63802 12.7205 6.37867 13.3 7.23083 13.3H18.8191C19.6583 13.3 20.371 12.73 20.5913 11.9035L23 2.85003H21.0541L18.8182 11.4H7.2299L4.79236 1.42504C4.69167 1.01581 4.45956 0.652953 4.1332 0.394587C3.80683 0.136222 3.4051 -0.00271028 2.99232 4.00628e-05H0.929293ZM17.6566 13.3C16.1279 13.3 14.8687 14.5873 14.8687 16.15C14.8687 17.7128 16.1279 19 17.6566 19C19.1853 19 20.4444 17.7128 20.4444 16.15C20.4444 14.5873 19.1853 13.3 17.6566 13.3ZM9.29293 13.3C7.76424 13.3 6.50505 14.5873 6.50505 16.15C6.50505 17.7128 7.76424 19 9.29293 19C10.8216 19 12.0808 17.7128 12.0808 16.15C12.0808 14.5873 10.8216 13.3 9.29293 13.3ZM12.0808 4.00628e-05V4.75003H9.29293L13.0101 8.55002L16.7273 4.75003H13.9394V4.00628e-05H12.0808ZM9.29293 15.2C9.81705 15.2 10.2222 15.6142 10.2222 16.15C10.2222 16.6858 9.81705 17.1 9.29293 17.1C8.76881 17.1 8.36364 16.6858 8.36364 16.15C8.36364 15.6142 8.76881 15.2 9.29293 15.2ZM17.6566 15.2C18.1807 15.2 18.5859 15.6142 18.5859 16.15C18.5859 16.6858 18.1807 17.1 17.6566 17.1C17.1324 17.1 16.7273 16.6858 16.7273 16.15C16.7273 15.6142 17.1324 15.2 17.6566 15.2Z" fill="#D9AB4D"/>
</svg>
