<svg xmlns="http://www.w3.org/2000/svg" xmlns:xlink="http://www.w3.org/1999/xlink" width="300" zoomAndPan="magnify" viewBox="0 0 224.87999 225" height="300" preserveAspectRatio="xMidYMid meet" version="1.0"><defs><clipPath id="96a33301c6"><path d="M 16 63 L 217.9375 63 L 217.9375 140.414062 L 16 140.414062 Z M 16 63 " clip-rule="nonzero"/></clipPath></defs><path fill="#ffffff" d="M 214.347656 124.925781 C 214.238281 125.175781 214.121094 125.421875 214 125.660156 C 210.410156 132.894531 203.066406 137.523438 195.007812 137.980469 C 146.648438 140.730469 88.019531 139.226562 39.527344 135.785156 C 35.105469 135.472656 30.886719 133.792969 27.492188 130.941406 C 22.796875 127 18.710938 122.429688 17.410156 116.570312 C 15.265625 106.898438 22.332031 96.664062 31.734375 93.558594 C 39.480469 91 48.097656 92.671875 55.175781 96.855469 C 55.632812 82.554688 66.199219 68.910156 80.148438 65.34375 C 91.308594 62.492188 103.667969 66.339844 111.878906 74.3125 C 117.609375 69.339844 124.414062 65.65625 131.847656 64.359375 C 142.253906 62.542969 153.855469 66.039062 160.242188 74.457031 C 164.527344 80.109375 165.824219 87.953125 163.851562 94.65625 C 167.558594 93.949219 171.523438 94.574219 174.746094 96.546875 C 178.03125 98.5625 180.417969 101.914062 181.433594 105.628906 C 187.476562 103.726562 193.894531 103 200.210938 103.53125 C 205.1875 103.949219 210.492188 105.375 213.554688 109.316406 C 216.910156 113.652344 216.601562 119.9375 214.347656 124.925781 Z M 214.347656 124.925781 " fill-opacity="1" fill-rule="nonzero"/><g clip-path="url(#96a33301c6)"><path fill="#ffffff" d="M 213.253906 107.558594 C 208.488281 102.925781 200.8125 102.359375 194.539062 102.585938 C 190.339844 102.734375 186.179688 103.417969 182.152344 104.585938 C 181.003906 101.191406 178.839844 98.179688 175.832031 96.179688 C 172.667969 94.074219 168.832031 93.304688 165.089844 93.683594 C 166.160156 89.085938 165.902344 84.222656 164.246094 79.78125 C 162.523438 75.171875 159.378906 71.289062 155.339844 68.5 C 147.203125 62.878906 136.585938 61.753906 127.238281 64.652344 C 121.621094 66.394531 116.488281 69.371094 111.980469 73.117188 C 104.238281 66.046875 93.398438 62.410156 82.964844 63.960938 C 72.855469 65.464844 64.105469 72.113281 58.96875 80.8125 C 56.355469 85.234375 54.707031 90.226562 54.277344 95.339844 C 46.957031 91.515625 38.09375 90.152344 30.257812 93.238281 C 23.296875 95.980469 17.679688 102.460938 16.320312 109.859375 C 14.796875 118.183594 19.675781 125.324219 25.644531 130.589844 C 28.890625 133.457031 32.628906 135.519531 36.929688 136.292969 C 39.039062 136.671875 41.207031 136.726562 43.34375 136.875 C 45.664062 137.03125 47.980469 137.183594 50.300781 137.328125 C 69.121094 138.515625 87.972656 139.339844 106.828125 139.800781 C 125.992188 140.273438 145.167969 140.382812 164.339844 139.960938 C 173.445312 139.765625 182.554688 139.449219 191.65625 138.96875 C 195.714844 138.757812 199.585938 138.4375 203.359375 136.796875 C 206.84375 135.28125 209.972656 132.917969 212.34375 129.945312 C 213.519531 128.476562 214.5 126.847656 215.285156 125.132812 C 217.792969 119.46875 217.988281 112.164062 213.253906 107.558594 Z M 195.976562 137.105469 C 191.875 137.515625 187.707031 137.566406 183.59375 137.738281 C 179.195312 137.925781 174.792969 138.078125 170.390625 138.199219 C 152.140625 138.699219 133.875 138.703125 115.621094 138.367188 C 97.449219 138.03125 79.285156 137.347656 61.140625 136.335938 C 56.816406 136.097656 52.488281 135.839844 48.167969 135.558594 C 46.027344 135.421875 43.882812 135.277344 41.746094 135.128906 C 39.609375 134.980469 37.511719 134.816406 35.445312 134.214844 C 31.359375 133.023438 28.078125 130.464844 25.109375 127.507812 C 22.300781 124.707031 19.839844 121.40625 18.710938 117.558594 C 16.589844 110.359375 19.832031 102.714844 25.4375 98.035156 C 31.957031 92.59375 40.910156 92.089844 48.714844 94.808594 C 50.765625 95.523438 52.730469 96.472656 54.605469 97.566406 C 55.113281 97.863281 56.148438 97.542969 56.171875 96.871094 C 56.519531 87.417969 61.179688 78.34375 68.4375 72.316406 C 72.097656 69.277344 76.40625 67.015625 81.058594 65.953125 C 86.042969 64.816406 91.257812 65.054688 96.179688 66.394531 C 101.777344 67.917969 106.933594 70.871094 111.109375 74.894531 C 111.460938 75.230469 112.160156 75.195312 112.515625 74.890625 C 119.996094 68.441406 129.484375 64.070312 139.53125 64.796875 C 148.5 65.449219 157.589844 70.203125 161.578125 78.554688 C 163.90625 83.441406 164.410156 89.238281 162.917969 94.445312 C 162.710938 95.167969 163.347656 95.566406 164.019531 95.445312 C 167.707031 94.785156 171.644531 95.464844 174.742188 97.632812 C 177.546875 99.59375 179.519531 102.566406 180.449219 105.839844 C 180.582031 106.304688 181.144531 106.558594 181.597656 106.417969 C 188.269531 104.347656 195.578125 103.507812 202.507812 104.644531 C 205.324219 105.105469 208.199219 105.957031 210.519531 107.6875 C 212.878906 109.445312 214.359375 111.984375 214.859375 114.871094 C 215.4375 118.195312 214.765625 121.652344 213.414062 124.707031 C 210.246094 131.613281 203.53125 136.347656 195.976562 137.105469 Z M 195.976562 137.105469 " fill-opacity="1" fill-rule="nonzero"/></g></svg>