<svg xmlns="http://www.w3.org/2000/svg" xmlns:xlink="http://www.w3.org/1999/xlink" width="300" zoomAndPan="magnify" viewBox="0 0 224.87999 225" height="300" preserveAspectRatio="xMidYMid meet" version="1.0"><defs><clipPath id="05cf0e66d9"><path d="M 50 14 L 174 14 L 174 163 L 50 163 Z M 50 14 " clip-rule="nonzero"/></clipPath><clipPath id="7a6ad75a36"><path d="M 45.914062 17.28125 L 171.757812 12.585938 L 178.660156 197.609375 L 52.8125 202.304688 Z M 45.914062 17.28125 " clip-rule="nonzero"/></clipPath><clipPath id="21f66f19ce"><path d="M 45.914062 17.28125 L 171.757812 12.585938 L 178.660156 197.609375 L 52.8125 202.304688 Z M 45.914062 17.28125 " clip-rule="nonzero"/></clipPath><clipPath id="04a0b61877"><path d="M 45.914062 17.28125 L 171.757812 12.585938 L 178.660156 197.609375 L 52.8125 202.304688 Z M 45.914062 17.28125 " clip-rule="nonzero"/></clipPath><clipPath id="57676ef426"><path d="M 50 54 L 174 54 L 174 134 L 50 134 Z M 50 54 " clip-rule="nonzero"/></clipPath><clipPath id="020d129582"><path d="M 45.914062 17.28125 L 171.757812 12.585938 L 178.660156 197.609375 L 52.8125 202.304688 Z M 45.914062 17.28125 " clip-rule="nonzero"/></clipPath><clipPath id="c1ec9b562b"><path d="M 45.914062 17.28125 L 171.757812 12.585938 L 178.660156 197.609375 L 52.8125 202.304688 Z M 45.914062 17.28125 " clip-rule="nonzero"/></clipPath><clipPath id="ed489337bd"><path d="M 45.914062 17.28125 L 171.757812 12.585938 L 178.660156 197.609375 L 52.8125 202.304688 Z M 45.914062 17.28125 " clip-rule="nonzero"/></clipPath><clipPath id="bfb26afe79"><path d="M 58 14 L 164 14 L 164 200 L 58 200 Z M 58 14 " clip-rule="nonzero"/></clipPath><clipPath id="4c7e05f68d"><path d="M 45.914062 17.28125 L 171.757812 12.585938 L 178.660156 197.609375 L 52.8125 202.304688 Z M 45.914062 17.28125 " clip-rule="nonzero"/></clipPath><clipPath id="39a16f73e4"><path d="M 45.914062 17.28125 L 171.757812 12.585938 L 178.660156 197.609375 L 52.8125 202.304688 Z M 45.914062 17.28125 " clip-rule="nonzero"/></clipPath><clipPath id="7aed57c890"><path d="M 45.914062 17.28125 L 171.757812 12.585938 L 178.660156 197.609375 L 52.8125 202.304688 Z M 45.914062 17.28125 " clip-rule="nonzero"/></clipPath><clipPath id="c1726a3843"><path d="M 116 170 L 148 170 L 148 179 L 116 179 Z M 116 170 " clip-rule="nonzero"/></clipPath><clipPath id="15767eed8b"><path d="M 45.914062 17.28125 L 171.757812 12.585938 L 178.660156 197.609375 L 52.8125 202.304688 Z M 45.914062 17.28125 " clip-rule="nonzero"/></clipPath><clipPath id="b50b9a12f3"><path d="M 45.914062 17.28125 L 171.757812 12.585938 L 178.660156 197.609375 L 52.8125 202.304688 Z M 45.914062 17.28125 " clip-rule="nonzero"/></clipPath><clipPath id="82f3530cce"><path d="M 45.914062 17.28125 L 171.757812 12.585938 L 178.660156 197.609375 L 52.8125 202.304688 Z M 45.914062 17.28125 " clip-rule="nonzero"/></clipPath><clipPath id="cc2ffc85cf"><path d="M 129 171 L 149 171 L 149 199 L 129 199 Z M 129 171 " clip-rule="nonzero"/></clipPath><clipPath id="ed21209d8f"><path d="M 45.914062 17.28125 L 171.757812 12.585938 L 178.660156 197.609375 L 52.8125 202.304688 Z M 45.914062 17.28125 " clip-rule="nonzero"/></clipPath><clipPath id="586917ec19"><path d="M 45.914062 17.28125 L 171.757812 12.585938 L 178.660156 197.609375 L 52.8125 202.304688 Z M 45.914062 17.28125 " clip-rule="nonzero"/></clipPath><clipPath id="609029fe1d"><path d="M 45.914062 17.28125 L 171.757812 12.585938 L 178.660156 197.609375 L 52.8125 202.304688 Z M 45.914062 17.28125 " clip-rule="nonzero"/></clipPath></defs><g clip-path="url(#05cf0e66d9)"><g clip-path="url(#7a6ad75a36)"><g clip-path="url(#21f66f19ce)"><g clip-path="url(#04a0b61877)"><path fill="#d7d3c9" d="M 173.605469 80.496094 C 172.871094 88.269531 170.714844 95.621094 167.136719 102.554688 C 167.136719 102.566406 167.136719 102.574219 167.136719 102.585938 L 167.113281 102.628906 C 166.292969 104.234375 165.398438 105.804688 164.433594 107.34375 L 163.667969 108.582031 C 163.660156 108.589844 163.652344 108.601562 163.648438 108.609375 L 163.625 108.652344 L 163.605469 108.6875 C 161.605469 111.925781 159.730469 115.222656 157.988281 118.574219 C 157.972656 118.601562 157.957031 118.628906 157.941406 118.65625 C 155.671875 123.011719 153.652344 127.480469 151.882812 132.0625 C 151.402344 133.3125 150.941406 134.5625 150.503906 135.8125 C 150.46875 135.902344 150.441406 135.988281 150.410156 136.078125 L 149.355469 139.148438 L 148.5 141.625 L 143.675781 155.648438 C 143.414062 156.410156 143.023438 157.101562 142.5 157.714844 C 141.980469 158.332031 141.367188 158.832031 140.660156 159.21875 C 140.546875 159.28125 140.429688 159.339844 140.300781 159.394531 C 140.167969 159.453125 140.066406 159.5 139.933594 159.546875 C 139.453125 159.738281 138.957031 159.871094 138.445312 159.941406 L 131.921875 160.851562 L 131.1875 160.953125 L 125.886719 161.71875 L 125.152344 161.820312 L 119.425781 162.617188 C 118.558594 162.738281 117.714844 162.648438 116.890625 162.34375 C 116.746094 162.292969 116.605469 162.234375 116.464844 162.167969 C 116.316406 162.097656 116.167969 162.023438 116.027344 161.9375 C 115.585938 161.683594 115.191406 161.367188 114.84375 160.996094 L 104.53125 150.003906 L 100.550781 145.746094 C 99.949219 145.097656 99.332031 144.457031 98.71875 143.824219 C 98.105469 143.1875 97.496094 142.582031 96.878906 141.972656 C 96.261719 141.363281 95.671875 140.789062 95.058594 140.210938 C 92.265625 137.535156 89.347656 134.992188 86.3125 132.601562 C 83.648438 130.515625 80.90625 128.558594 78.085938 126.730469 C 73.535156 123.804688 69.425781 120.351562 65.753906 116.375 L 65.722656 116.339844 L 65.699219 116.308594 C 59.359375 109.40625 54.65625 101.132812 52.320312 92.097656 C 52.316406 92.058594 52.316406 92.023438 52.285156 91.984375 L 52.28125 91.941406 C 52.042969 90.996094 51.824219 90.042969 51.636719 89.078125 C 50.945312 85.550781 50.605469 81.988281 50.613281 78.394531 L 50.621094 77.925781 C 50.617188 77.835938 50.613281 77.742188 50.609375 77.644531 C 50.597656 77.332031 50.617188 77.011719 50.628906 76.699219 C 50.660156 75.800781 50.707031 74.910156 50.773438 74.011719 C 50.785156 73.792969 50.804688 73.574219 50.824219 73.355469 C 50.863281 72.914062 50.90625 72.476562 50.953125 72.039062 L 51.027344 71.378906 C 51.082031 70.941406 51.140625 70.503906 51.203125 70.066406 L 51.253906 69.691406 C 51.253906 69.691406 51.253906 69.671875 51.253906 69.65625 C 51.496094 68.042969 51.804688 66.433594 52.179688 64.835938 L 52.332031 64.183594 L 52.46875 63.625 C 52.695312 62.71875 52.941406 61.816406 53.203125 60.914062 L 53.390625 60.308594 L 53.476562 60.023438 C 53.539062 59.820312 53.601562 59.609375 53.671875 59.402344 C 53.710938 59.28125 53.753906 59.152344 53.796875 59.027344 C 53.863281 58.816406 53.933594 58.605469 54.007812 58.390625 C 54.152344 57.96875 54.300781 57.546875 54.453125 57.121094 L 54.683594 56.488281 C 54.761719 56.277344 54.839844 56.070312 54.917969 55.863281 C 55.40625 54.609375 55.929688 53.359375 56.488281 52.105469 L 56.769531 51.492188 C 57.148438 50.6875 57.546875 49.886719 57.957031 49.082031 C 58.0625 48.878906 58.164062 48.675781 58.273438 48.476562 C 58.378906 48.277344 58.484375 48.078125 58.59375 47.882812 C 58.703125 47.683594 58.808594 47.480469 58.917969 47.285156 C 59.027344 47.089844 59.136719 46.90625 59.265625 46.691406 C 59.394531 46.476562 59.488281 46.3125 59.613281 46.101562 L 59.960938 45.492188 C 60.183594 45.113281 60.417969 44.738281 60.65625 44.359375 L 60.699219 44.285156 L 61 43.789062 C 61.117188 43.601562 61.242188 43.410156 61.347656 43.21875 L 61.441406 43.078125 L 62.097656 42.089844 L 62.234375 41.890625 C 62.417969 41.621094 62.585938 41.351562 62.792969 41.085938 C 63 40.820312 63.109375 40.636719 63.269531 40.417969 C 63.503906 40.082031 63.75 39.746094 64.007812 39.414062 L 64.15625 39.21875 C 64.382812 38.914062 64.617188 38.613281 64.859375 38.316406 L 64.964844 38.1875 C 65.214844 37.871094 65.46875 37.554688 65.722656 37.242188 L 65.839844 37.097656 C 66.09375 36.789062 66.351562 36.484375 66.609375 36.179688 L 66.753906 36.011719 C 67.003906 35.71875 67.261719 35.429688 67.515625 35.140625 L 67.546875 35.101562 C 67.847656 34.769531 68.144531 34.445312 68.445312 34.121094 C 68.601562 33.949219 68.757812 33.78125 68.917969 33.617188 C 69.042969 33.484375 69.164062 33.351562 69.292969 33.234375 L 69.398438 33.121094 L 69.75 32.738281 C 69.765625 32.722656 69.78125 32.707031 69.792969 32.691406 L 69.84375 32.644531 C 70.027344 32.457031 70.199219 32.261719 70.394531 32.089844 L 70.75 31.730469 C 71.050781 31.4375 71.355469 31.148438 71.65625 30.867188 C 71.894531 30.644531 72.132812 30.425781 72.371094 30.207031 C 72.484375 30.101562 72.605469 30 72.730469 29.894531 C 73.011719 29.644531 73.292969 29.394531 73.578125 29.148438 C 73.867188 28.90625 74.21875 28.605469 74.542969 28.335938 C 74.695312 28.210938 74.851562 28.082031 75.007812 27.949219 C 75.367188 27.65625 75.726562 27.371094 76.085938 27.089844 C 76.339844 26.890625 76.597656 26.699219 76.855469 26.5 L 77.007812 26.390625 C 77.316406 26.160156 77.628906 25.933594 77.941406 25.707031 L 78.441406 25.390625 C 78.664062 25.230469 78.894531 25.074219 79.121094 24.921875 C 79.246094 24.832031 79.367188 24.746094 79.480469 24.667969 L 79.921875 24.371094 L 80.375 24.078125 C 80.796875 23.808594 81.21875 23.539062 81.652344 23.289062 L 82.191406 22.96875 C 82.3125 22.890625 82.433594 22.820312 82.554688 22.75 L 82.613281 22.714844 L 82.976562 22.503906 C 83.378906 22.273438 83.785156 22.046875 84.191406 21.828125 L 84.839844 21.453125 L 85.144531 21.292969 L 85.449219 21.136719 L 85.660156 21.03125 C 85.746094 20.980469 85.832031 20.9375 85.917969 20.898438 L 86.113281 20.800781 L 86.253906 20.734375 C 86.5625 20.578125 86.878906 20.425781 87.195312 20.277344 L 87.984375 19.914062 L 88.625 19.632812 C 89.011719 19.460938 89.398438 19.300781 89.792969 19.136719 C 90.179688 18.980469 90.570312 18.828125 90.964844 18.675781 L 91.792969 18.363281 L 92.015625 18.28125 L 92.246094 18.199219 L 92.335938 18.167969 L 93.363281 17.816406 C 93.746094 17.6875 94.132812 17.5625 94.519531 17.445312 C 94.976562 17.300781 95.441406 17.164062 95.90625 17.023438 L 95.957031 17.019531 L 96.542969 16.863281 L 96.90625 16.765625 L 97.082031 16.714844 L 97.300781 16.660156 L 98 16.488281 L 98.710938 16.324219 C 99.179688 16.21875 99.652344 16.117188 100.128906 16.023438 C 100.449219 15.957031 100.769531 15.898438 101.085938 15.84375 C 101.21875 15.816406 101.351562 15.796875 101.484375 15.773438 L 101.515625 15.769531 L 102.171875 15.660156 L 102.410156 15.625 L 103.230469 15.507812 L 103.515625 15.46875 L 103.605469 15.464844 L 104.316406 15.371094 L 104.917969 15.304688 L 105 15.300781 L 105.058594 15.296875 L 105.261719 15.292969 L 105.414062 15.285156 L 105.910156 15.238281 L 105.96875 15.234375 C 106.207031 15.226562 106.449219 15.191406 106.703125 15.175781 L 106.960938 15.164062 L 107.375 15.148438 L 107.769531 15.132812 L 107.9375 15.128906 L 108.125 15.121094 L 108.96875 15.003906 L 110.074219 14.964844 L 110.359375 14.953125 L 110.964844 14.949219 L 111.410156 14.933594 C 111.570312 14.925781 111.734375 14.925781 111.898438 14.9375 L 112.582031 14.953125 L 113.261719 14.972656 L 113.398438 14.96875 L 113.90625 14.996094 L 114.671875 15.035156 L 114.746094 15.035156 L 115.511719 15.089844 C 116.011719 15.125 116.507812 15.171875 116.992188 15.222656 L 117.65625 15.296875 L 118.320312 15.378906 L 118.898438 15.453125 L 118.980469 15.449219 C 119.417969 15.511719 119.855469 15.578125 120.292969 15.648438 C 120.734375 15.714844 121.167969 15.796875 121.601562 15.875 C 121.929688 15.933594 122.257812 16 122.582031 16.066406 C 122.90625 16.132812 123.230469 16.195312 123.554688 16.269531 L 124.523438 16.492188 L 125.488281 16.730469 L 126.003906 16.863281 L 126.050781 16.859375 L 126.117188 16.859375 L 126.234375 16.890625 L 126.539062 16.972656 L 127.078125 17.121094 L 127.394531 17.210938 C 127.800781 17.328125 128.203125 17.449219 128.609375 17.574219 L 129.292969 17.792969 L 129.917969 18 L 130.613281 18.234375 L 131.167969 18.433594 L 131.585938 18.585938 C 131.800781 18.664062 132.019531 18.742188 132.234375 18.828125 L 132.882812 19.074219 L 133.457031 19.300781 L 133.519531 19.328125 C 134 19.523438 134.472656 19.71875 134.945312 19.925781 C 135.117188 20.003906 135.292969 20.074219 135.460938 20.152344 L 136.066406 20.421875 C 136.269531 20.515625 136.472656 20.605469 136.671875 20.703125 L 137.230469 20.964844 L 137.40625 21.050781 L 138.382812 21.617188 L 138.859375 21.859375 L 139.332031 22.105469 L 139.394531 22.136719 L 139.632812 22.261719 L 140.5625 22.765625 C 140.9375 22.960938 141.28125 23.167969 141.640625 23.371094 L 142.238281 23.71875 L 142.617188 23.9375 L 143.082031 24.21875 L 143.433594 24.433594 L 144.011719 24.792969 L 144.75 25.261719 C 145.128906 25.496094 145.484375 25.742188 145.847656 25.988281 L 146.390625 26.359375 L 146.925781 26.734375 C 147.207031 26.933594 147.488281 27.136719 147.765625 27.335938 L 147.953125 27.472656 L 148.523438 27.898438 C 149.285156 28.460938 150.015625 29.035156 150.738281 29.632812 L 150.933594 29.796875 L 151.15625 29.980469 C 151.371094 30.148438 151.585938 30.335938 151.792969 30.511719 L 152.089844 30.765625 L 152.316406 30.960938 C 152.492188 31.105469 152.664062 31.257812 152.835938 31.414062 L 153.21875 31.769531 L 153.261719 31.8125 C 153.453125 31.980469 153.644531 32.167969 153.835938 32.335938 C 153.96875 32.453125 154.09375 32.574219 154.21875 32.691406 C 154.460938 32.914062 154.699219 33.140625 154.929688 33.363281 L 155.3125 33.742188 L 155.839844 34.265625 L 156.296875 34.730469 C 156.464844 34.902344 156.632812 35.074219 156.792969 35.242188 C 156.953125 35.414062 157.101562 35.570312 157.230469 35.703125 C 157.484375 35.972656 157.738281 36.246094 158 36.523438 L 158.171875 36.710938 C 158.464844 37.03125 158.75 37.355469 159.027344 37.679688 C 159.046875 37.695312 159.0625 37.71875 159.082031 37.738281 C 159.363281 38.0625 159.644531 38.386719 159.914062 38.71875 L 159.96875 38.785156 C 160.28125 39.15625 160.574219 39.519531 160.851562 39.878906 C 160.863281 39.890625 160.871094 39.902344 160.882812 39.917969 C 161.15625 40.277344 161.421875 40.605469 161.6875 40.953125 C 161.746094 41.023438 161.796875 41.097656 161.847656 41.164062 C 162.070312 41.457031 162.289062 41.746094 162.503906 42.042969 L 162.671875 42.277344 C 162.933594 42.636719 163.183594 42.996094 163.449219 43.355469 C 163.71875 43.71875 163.984375 44.140625 164.234375 44.535156 L 164.625 45.128906 C 165.523438 46.519531 166.359375 47.941406 167.140625 49.394531 C 167.25 49.601562 167.359375 49.808594 167.46875 50.015625 C 168.015625 51.070312 168.535156 52.136719 169.019531 53.214844 C 169.207031 53.628906 169.386719 54.050781 169.5625 54.46875 C 169.65625 54.683594 169.742188 54.898438 169.828125 55.117188 C 169.914062 55.335938 170.003906 55.550781 170.089844 55.765625 C 170.152344 55.921875 170.210938 56.074219 170.269531 56.230469 C 170.328125 56.386719 170.402344 56.597656 170.464844 56.75 C 170.585938 57.082031 170.710938 57.414062 170.824219 57.746094 C 170.898438 57.960938 170.972656 58.175781 171.042969 58.390625 C 171.117188 58.605469 171.183594 58.800781 171.25 59.007812 C 171.316406 59.21875 171.398438 59.480469 171.476562 59.738281 C 171.550781 60 171.609375 60.183594 171.671875 60.40625 C 172.132812 61.964844 172.519531 63.542969 172.835938 65.136719 C 173.832031 70.21875 174.085938 75.339844 173.605469 80.496094 Z M 173.605469 80.496094 " fill-opacity="1" fill-rule="nonzero"/></g></g></g></g><g clip-path="url(#57676ef426)"><g clip-path="url(#020d129582)"><g clip-path="url(#c1ec9b562b)"><g clip-path="url(#ed489337bd)"><path fill="#c6b38b" d="M 173.605469 80.496094 C 173.414062 80.601562 168.054688 83.582031 162.175781 79.546875 C 162.175781 79.546875 153.503906 85.34375 144.789062 77.75 C 144.789062 77.75 137.855469 83.382812 127.488281 76.578125 C 127.488281 76.578125 127.40625 76.675781 127.242188 76.847656 C 125.605469 78.5625 115.804688 87.804688 99.921875 81.367188 C 99.921875 81.367188 89.015625 88.726562 81.65625 82.898438 C 81.511719 83.144531 75.753906 92.992188 64.609375 88.5 C 64.609375 88.5 59.117188 98.320312 52.324219 92.101562 C 52.320312 92.0625 52.320312 92.027344 52.289062 91.988281 C 51.867188 90.636719 48.148438 77.699219 51.261719 69.695312 C 51.261719 69.695312 53.855469 71.847656 59.230469 66.785156 C 59.367188 66.929688 59.511719 67.066406 59.664062 67.195312 C 61.222656 68.5 67.015625 72.042969 77.140625 63.527344 C 77.140625 63.527344 77.222656 63.589844 77.382812 63.691406 C 78.929688 64.707031 87.675781 69.726562 96.269531 60.03125 C 96.269531 60.03125 109.9375 67.136719 123.578125 57.039062 C 123.578125 57.039062 136.242188 63.738281 142.589844 54.140625 L 142.65625 54.039062 C 142.65625 54.039062 152.730469 62.820312 161.203125 54.375 L 161.222656 54.375 C 161.222656 54.375 168.429688 59.535156 170.464844 56.765625 C 170.582031 57.097656 170.707031 57.429688 170.820312 57.761719 C 170.894531 57.976562 170.972656 58.191406 171.042969 58.40625 C 171.113281 58.621094 171.179688 58.816406 171.246094 59.023438 C 171.3125 59.230469 171.394531 59.496094 171.472656 59.753906 C 171.546875 60.015625 171.605469 60.199219 171.671875 60.421875 C 172.128906 61.980469 172.515625 63.558594 172.832031 65.152344 C 173.828125 70.230469 174.085938 75.34375 173.605469 80.496094 Z M 167.136719 102.554688 C 167.136719 102.554688 161.699219 107.246094 158.765625 101.597656 C 158.765625 101.597656 151.40625 109.535156 143.679688 100.71875 C 143.679688 100.71875 134.886719 106.410156 129.578125 100.730469 C 129.578125 100.730469 121.394531 110.148438 107.15625 104.820312 C 107.15625 104.820312 103.019531 112.722656 93.214844 108.757812 C 93.214844 108.757812 89.480469 116.914062 77.589844 113.367188 C 77.589844 113.367188 72.007812 119.605469 65.699219 116.308594 C 65.699219 116.308594 73.726562 126.113281 86.28125 132.585938 C 86.28125 132.585938 88.929688 134.285156 89.519531 131.585938 C 89.519531 131.585938 100.40625 133.65625 101.75 127.019531 C 101.75 127.019531 110.480469 130.761719 114.234375 123.710938 C 114.234375 123.710938 123.390625 129.175781 128.695312 121.324219 C 128.695312 121.324219 135.433594 126.835938 141.265625 120.367188 C 141.265625 120.367188 147.125 127.625 154.75 119.160156 C 154.75 119.160156 156.117188 122.066406 157.988281 118.570312 C 159.859375 115.070312 167.136719 102.5625 167.136719 102.5625 Z M 167.136719 102.554688 " fill-opacity="1" fill-rule="nonzero"/></g></g></g></g><g clip-path="url(#bfb26afe79)"><g clip-path="url(#4c7e05f68d)"><g clip-path="url(#39a16f73e4)"><g clip-path="url(#7aed57c890)"><path fill="#a39c82" d="M 142.984375 54.300781 C 144.761719 62.121094 145.484375 70.039062 145.144531 78.050781 C 145.117188 78.695312 145.082031 79.34375 145.035156 79.992188 C 144.523438 87.382812 143.941406 94.382812 143.371094 100.914062 C 143.0625 104.4375 142.757812 107.828125 142.464844 111.066406 C 142.164062 114.429688 141.875 117.660156 141.601562 120.75 C 140.875 129.148438 140.308594 136.566406 140.109375 143.121094 C 139.988281 143.039062 139.867188 142.953125 139.757812 142.859375 C 139.625 143.035156 139.496094 143.199219 139.363281 143.355469 C 139.554688 136.753906 140.121094 129.273438 140.859375 120.804688 C 141.128906 117.675781 141.417969 114.40625 141.730469 110.996094 C 142.007812 107.910156 142.300781 104.6875 142.59375 101.347656 C 143.175781 94.671875 143.773438 87.523438 144.300781 79.953125 C 144.347656 79.308594 144.382812 78.667969 144.410156 78.03125 C 144.742188 70.121094 144.035156 62.304688 142.289062 54.582031 C 140.480469 46.53125 137.789062 38.789062 134.214844 31.351562 C 133.679688 30.246094 133.148438 29.175781 132.617188 28.144531 C 123.136719 23.296875 116.113281 28.382812 114.679688 29.585938 C 118.507812 38.5625 121.609375 47.789062 123.980469 57.257812 C 125.582031 63.652344 126.78125 70.121094 127.578125 76.664062 C 127.71875 77.84375 127.847656 79.03125 127.960938 80.226562 C 128.691406 87.898438 129.023438 94.820312 129.148438 101.1875 C 129.292969 108.460938 129.167969 115.007812 129.054688 121.121094 C 129.058594 121.289062 129.046875 121.453125 129.042969 121.621094 C 128.886719 129.832031 128.761719 137.140625 129.308594 144.371094 C 128.992188 144.183594 128.734375 144.019531 128.550781 143.890625 C 128.042969 136.738281 128.15625 129.574219 128.304688 121.882812 L 128.320312 121.109375 C 128.433594 115.1875 128.550781 108.851562 128.425781 101.847656 C 128.308594 95.316406 127.980469 88.203125 127.226562 80.296875 C 127.128906 79.257812 127.023438 78.222656 126.902344 77.199219 C 126.105469 70.488281 124.882812 63.851562 123.234375 57.296875 C 120.867188 47.828125 117.769531 38.609375 113.945312 29.628906 C 103.722656 26.34375 97.484375 31.605469 95.886719 33.203125 C 95.503906 42.226562 95.777344 51.230469 96.699219 60.21875 C 97.4375 67.40625 98.660156 74.507812 100.363281 81.53125 C 100.652344 82.683594 100.953125 83.84375 101.261719 85.007812 C 103.269531 92.402344 105.378906 98.960938 107.488281 104.9375 C 109.914062 111.804688 112.339844 117.902344 114.601562 123.589844 C 114.65625 123.722656 114.707031 123.851562 114.757812 123.984375 C 117.707031 131.390625 120.433594 138.277344 122.519531 145.394531 C 122.316406 145.207031 122.128906 145.003906 121.957031 144.785156 C 121.886719 144.945312 121.8125 145.097656 121.726562 145.25 C 119.6875 138.394531 117.023438 131.671875 114.023438 124.125 L 113.917969 123.863281 C 111.667969 118.210938 109.261719 112.160156 106.851562 105.34375 C 104.714844 99.3125 102.578125 92.683594 100.558594 85.203125 C 100.230469 83.980469 99.917969 82.773438 99.628906 81.574219 C 97.9375 74.589844 96.726562 67.519531 95.988281 60.371094 C 95.0625 51.441406 94.78125 42.488281 95.148438 33.519531 C 86.324219 30.410156 79.714844 35.527344 78.023438 37.035156 C 77.835938 38.519531 77.667969 40.078125 77.53125 41.691406 C 76.878906 49.117188 76.980469 56.53125 77.84375 63.933594 C 78.605469 70.539062 80.066406 76.988281 82.222656 83.277344 C 83.074219 85.753906 84.058594 88.234375 85.191406 90.707031 C 88.140625 97.160156 91.023438 103.257812 93.75 108.949219 C 95.40625 112.410156 97.003906 115.71875 98.527344 118.871094 C 99.941406 121.800781 101.292969 124.613281 102.589844 127.3125 C 106.070312 134.578125 109.101562 141.066406 111.554688 146.929688 C 111.246094 146.828125 111.074219 146.765625 111.074219 146.765625 C 111.054688 146.988281 111.019531 147.210938 110.964844 147.425781 C 108.453125 141.417969 105.320312 134.742188 101.71875 127.238281 C 100.480469 124.65625 99.1875 121.976562 97.84375 119.191406 C 96.304688 116.007812 94.695312 112.664062 93.011719 109.160156 C 90.285156 103.503906 87.417969 97.441406 84.480469 91.027344 C 83.324219 88.5 82.296875 85.921875 81.398438 83.292969 C 79.226562 76.890625 77.765625 70.328125 77.019531 63.609375 C 76.195312 56.289062 76.105469 48.957031 76.75 41.617188 C 76.886719 40.066406 77.046875 38.574219 77.226562 37.160156 C 73.488281 34.070312 66.332031 38.328125 63.28125 40.421875 C 63.515625 40.085938 63.761719 39.75 64.019531 39.417969 L 64.167969 39.222656 C 64.394531 38.917969 64.628906 38.617188 64.871094 38.320312 L 64.972656 38.191406 C 65.222656 37.875 65.480469 37.558594 65.734375 37.246094 L 65.851562 37.101562 C 66.105469 36.792969 66.363281 36.484375 66.621094 36.183594 L 66.765625 36.015625 C 67.015625 35.722656 67.269531 35.429688 67.527344 35.144531 L 67.558594 35.105469 C 67.859375 34.773438 68.152344 34.449219 68.457031 34.121094 C 68.613281 33.953125 68.769531 33.785156 68.929688 33.621094 C 69.050781 33.488281 69.175781 33.355469 69.304688 33.238281 L 69.398438 33.121094 L 69.75 32.738281 C 69.765625 32.722656 69.78125 32.707031 69.792969 32.691406 L 69.84375 32.644531 C 70.027344 32.457031 70.199219 32.261719 70.394531 32.089844 L 70.75 31.730469 C 71.050781 31.4375 71.355469 31.148438 71.65625 30.867188 C 71.894531 30.644531 72.132812 30.425781 72.371094 30.207031 C 72.484375 30.101562 72.605469 30 72.730469 29.894531 C 73.011719 29.644531 73.292969 29.394531 73.578125 29.148438 C 73.867188 28.90625 74.21875 28.605469 74.542969 28.335938 C 74.695312 28.210938 74.851562 28.082031 75.007812 27.949219 C 75.367188 27.65625 75.726562 27.371094 76.085938 27.089844 C 76.339844 26.890625 76.597656 26.699219 76.855469 26.5 L 77.007812 26.390625 C 77.316406 26.160156 77.628906 25.933594 77.941406 25.707031 L 78.441406 25.390625 C 78.664062 25.230469 78.894531 25.074219 79.121094 24.921875 C 79.246094 24.832031 79.367188 24.746094 79.480469 24.667969 L 80.375 24.078125 C 80.792969 23.808594 81.21875 23.539062 81.652344 23.289062 L 82.191406 22.96875 C 82.3125 22.890625 82.433594 22.820312 82.554688 22.75 L 82.613281 22.714844 L 82.976562 22.503906 C 83.378906 22.273438 83.785156 22.046875 84.191406 21.828125 L 84.839844 21.453125 L 85.144531 21.292969 L 85.449219 21.136719 L 85.660156 21.03125 C 85.746094 20.980469 85.832031 20.9375 85.917969 20.898438 L 86.113281 20.800781 L 86.253906 20.734375 C 86.5625 20.578125 86.878906 20.425781 87.195312 20.277344 L 87.984375 19.914062 L 88.625 19.632812 C 89.011719 19.460938 89.398438 19.300781 89.792969 19.136719 C 90.179688 18.980469 90.570312 18.828125 90.964844 18.675781 L 91.792969 18.363281 L 92.015625 18.28125 L 92.246094 18.199219 L 92.335938 18.167969 L 93.363281 17.816406 C 93.746094 17.6875 94.132812 17.5625 94.519531 17.445312 C 94.976562 17.300781 95.441406 17.164062 95.90625 17.023438 L 95.957031 17.019531 L 96.542969 16.859375 L 96.90625 16.765625 L 97.300781 16.660156 L 98 16.488281 L 98.710938 16.324219 C 99.179688 16.21875 99.652344 16.117188 100.128906 16.023438 C 100.449219 15.957031 100.769531 15.898438 101.085938 15.84375 C 101.21875 15.816406 101.351562 15.796875 101.484375 15.773438 L 101.515625 15.769531 L 102.171875 15.660156 L 102.410156 15.625 L 103.230469 15.507812 L 103.515625 15.46875 L 103.605469 15.464844 L 104.316406 15.371094 L 104.917969 15.304688 L 105 15.300781 L 105.058594 15.296875 L 105.261719 15.292969 L 105.414062 15.285156 L 105.910156 15.238281 L 105.96875 15.234375 C 106.207031 15.226562 106.449219 15.191406 106.703125 15.175781 L 106.960938 15.164062 L 107.375 15.148438 L 107.4375 15.148438 C 107.546875 15.144531 107.660156 15.140625 107.769531 15.132812 L 108.136719 15.121094 L 108.96875 15.003906 L 110.074219 14.964844 L 110.359375 14.953125 L 110.964844 14.949219 L 111.410156 14.933594 C 111.570312 14.925781 111.734375 14.925781 111.898438 14.9375 L 112.582031 14.953125 L 113.261719 14.972656 L 113.398438 14.96875 L 113.90625 14.996094 L 114.671875 15.035156 L 114.746094 15.035156 L 115.511719 15.089844 C 116.011719 15.125 116.507812 15.171875 116.992188 15.222656 L 117.65625 15.296875 L 118.320312 15.378906 L 118.898438 15.453125 L 118.980469 15.449219 C 119.417969 15.511719 119.855469 15.578125 120.292969 15.648438 C 120.734375 15.714844 121.167969 15.796875 121.601562 15.875 C 121.929688 15.933594 122.257812 16 122.582031 16.066406 C 122.90625 16.132812 123.230469 16.195312 123.554688 16.269531 L 124.523438 16.492188 L 125.488281 16.730469 L 126.003906 16.863281 L 126.050781 16.859375 L 126.128906 16.878906 L 126.246094 16.914062 L 127.089844 17.144531 L 127.40625 17.230469 C 127.8125 17.347656 128.214844 17.472656 128.621094 17.597656 L 129.304688 17.816406 L 129.929688 18.019531 L 130.625 18.257812 L 131.179688 18.457031 L 131.597656 18.605469 C 131.8125 18.683594 132.03125 18.765625 132.246094 18.847656 L 132.894531 19.097656 L 133.46875 19.324219 L 133.53125 19.351562 C 134.011719 19.542969 134.484375 19.742188 134.957031 19.949219 C 135.132812 20.023438 135.304688 20.09375 135.472656 20.175781 L 136.078125 20.445312 C 136.28125 20.535156 136.484375 20.628906 136.683594 20.722656 L 137.242188 20.988281 L 137.417969 21.074219 L 138.382812 21.617188 L 138.859375 21.859375 L 139.332031 22.105469 L 139.394531 22.136719 L 139.632812 22.261719 L 140.5625 22.765625 C 140.9375 22.960938 141.28125 23.167969 141.640625 23.371094 L 142.238281 23.71875 L 142.617188 23.9375 L 143.082031 24.21875 L 143.433594 24.433594 L 144.011719 24.792969 L 144.75 25.261719 C 145.128906 25.496094 145.484375 25.742188 145.847656 25.988281 L 146.390625 26.359375 L 146.925781 26.734375 C 147.207031 26.933594 147.488281 27.136719 147.765625 27.335938 L 147.953125 27.472656 L 148.523438 27.898438 C 138.382812 24.496094 134.433594 27.222656 133.457031 28.144531 C 133.9375 29.070312 134.410156 30.027344 134.882812 31.015625 C 138.464844 38.472656 141.164062 46.234375 142.984375 54.300781 Z M 79.9375 24.359375 L 79.492188 24.65625 L 80.390625 24.066406 Z M 96.933594 16.769531 L 97.324219 16.667969 Z M 126.558594 17.074219 L 126.253906 16.992188 L 127.09375 17.222656 Z M 140.121094 143.117188 C 139.996094 143.039062 139.878906 142.953125 139.765625 142.859375 C 139.636719 143.035156 139.507812 143.199219 139.375 143.355469 C 135.933594 147.425781 131.382812 145.535156 129.332031 144.351562 C 129.015625 144.164062 128.757812 144 128.578125 143.871094 C 128.394531 143.742188 128.253906 143.640625 128.253906 143.640625 C 126.144531 148.058594 123.617188 146.445312 122.511719 145.398438 C 122.308594 145.210938 122.121094 145.007812 121.949219 144.789062 C 121.882812 144.949219 121.804688 145.101562 121.71875 145.253906 C 119.535156 149.152344 113.3125 147.503906 111.53125 146.9375 C 111.226562 146.835938 111.054688 146.773438 111.054688 146.773438 C 111.035156 146.996094 110.996094 147.21875 110.941406 147.4375 C 110.011719 151.03125 104.546875 150 104.546875 150 L 116.882812 165.59375 L 117.382812 166.226562 L 117.75 166.160156 L 118.816406 165.964844 L 119.550781 165.832031 L 125.785156 164.691406 L 126.152344 164.625 L 126.886719 164.496094 L 131.898438 163.570312 L 132.265625 163.503906 L 133.558594 163.269531 L 134.289062 163.136719 L 140.34375 162.035156 L 140.910156 161.929688 L 141.066406 161.902344 L 141.652344 161.796875 L 142.179688 161.699219 L 148.5 141.632812 C 144.734375 145.621094 141.207031 143.84375 140.109375 143.121094 Z M 122.566406 196.914062 C 122.683594 197.300781 122.863281 197.65625 123.105469 197.980469 C 123.351562 198.304688 123.640625 198.574219 123.980469 198.796875 C 124.320312 199.015625 124.6875 199.171875 125.082031 199.257812 C 125.476562 199.347656 125.875 199.367188 126.277344 199.316406 L 145.8125 196.738281 C 146.152344 196.691406 146.472656 196.589844 146.773438 196.425781 C 147.074219 196.261719 147.335938 196.046875 147.558594 195.789062 C 147.78125 195.527344 147.949219 195.234375 148.0625 194.910156 C 148.179688 194.585938 148.230469 194.253906 148.222656 193.910156 L 147.613281 171.261719 C 129.878906 169.214844 116.289062 175.902344 116.289062 175.902344 Z M 92.808594 135.375 C 91.964844 134.195312 91.089844 132.972656 90.191406 131.699219 C 86.683594 126.742188 82.738281 120.980469 78.277344 113.570312 C 75.328125 108.660156 72.148438 103.03125 68.726562 96.429688 C 67.425781 93.929688 66.261719 91.371094 65.230469 88.75 C 62.636719 82.160156 60.988281 75.339844 60.285156 68.289062 C 59.582031 61.242188 59.855469 54.230469 61.097656 47.253906 C 61.433594 45.359375 61.824219 43.566406 62.25 41.882812 L 62.113281 42.082031 L 61.460938 43.0625 L 61.367188 43.203125 C 61.242188 43.398438 61.117188 43.582031 61.015625 43.773438 L 60.699219 44.277344 C 60.507812 45.167969 60.328125 46.089844 60.160156 47.03125 C 58.992188 53.589844 58.667969 60.1875 59.1875 66.828125 C 59.792969 74.476562 61.496094 81.871094 64.304688 89.015625 C 65.355469 91.699219 66.542969 94.316406 67.871094 96.875 C 71.230469 103.347656 74.34375 108.890625 77.25 113.730469 C 81.78125 121.289062 85.789062 127.144531 89.34375 132.171875 C 90.273438 133.480469 91.164062 134.730469 92.027344 135.941406 C 93.089844 137.425781 94.097656 138.824219 95.058594 140.203125 C 95.671875 140.78125 96.277344 141.375 96.875 141.964844 C 97.476562 142.558594 98.109375 143.191406 98.71875 143.816406 C 96.929688 141.140625 94.976562 138.40625 92.808594 135.375 Z M 116.902344 162.347656 C 115.726562 157.695312 113.890625 152.605469 111.527344 146.9375 C 111.222656 146.835938 111.050781 146.773438 111.050781 146.773438 C 111.03125 146.996094 110.992188 147.21875 110.9375 147.4375 C 112.964844 152.152344 114.664062 156.980469 116.039062 161.925781 C 116.371094 163.179688 116.65625 164.398438 116.882812 165.59375 C 116.933594 165.828125 116.980469 166.058594 117.019531 166.292969 L 117.753906 166.160156 C 117.523438 164.925781 117.242188 163.652344 116.902344 162.347656 Z M 126.183594 164.628906 C 126.179688 164.601562 126.179688 164.570312 126.179688 164.539062 C 126.097656 163.585938 126 162.648438 125.894531 161.71875 C 125.222656 156.1875 124.09375 150.753906 122.496094 145.414062 C 122.292969 145.226562 122.105469 145.023438 121.933594 144.804688 C 121.867188 144.964844 121.789062 145.117188 121.707031 145.269531 C 123.335938 150.6875 124.484375 156.203125 125.152344 161.820312 C 125.261719 162.777344 125.359375 163.746094 125.445312 164.726562 L 125.785156 164.714844 L 126.15625 164.683594 C 126.167969 164.667969 126.179688 164.648438 126.183594 164.628906 Z M 161.746094 54.710938 C 160.125 46.621094 157.292969 38.980469 153.242188 31.796875 L 152.859375 31.441406 C 152.6875 31.285156 152.515625 31.132812 152.339844 30.988281 L 152.105469 30.78125 L 151.816406 30.535156 C 151.609375 30.355469 151.394531 30.183594 151.179688 30.003906 L 150.957031 29.820312 C 151.148438 30.136719 151.347656 30.453125 151.535156 30.78125 C 155.976562 38.261719 159.058594 46.269531 160.78125 54.800781 C 162.414062 62.984375 162.71875 71.214844 161.703125 79.496094 C 161.691406 79.621094 161.671875 79.746094 161.660156 79.867188 C 160.613281 88.5625 159.410156 95.855469 158.171875 102.1875 C 156.808594 109.121094 155.394531 114.863281 154.074219 119.914062 C 153.660156 121.484375 153.261719 122.988281 152.871094 124.441406 C 151.421875 129.878906 150.179688 134.527344 149.359375 139.179688 L 150.414062 136.113281 C 150.445312 136.023438 150.476562 135.9375 150.507812 135.847656 C 150.953125 134.582031 151.414062 133.332031 151.886719 132.097656 C 152.460938 129.757812 153.109375 127.328125 153.804688 124.714844 C 154.230469 123.125 154.667969 121.480469 155.117188 119.753906 C 156.410156 114.753906 157.808594 109.089844 159.144531 102.277344 C 160.386719 95.945312 161.589844 88.601562 162.640625 79.875 C 162.636719 79.796875 162.660156 79.714844 162.667969 79.632812 C 163.691406 71.277344 163.386719 62.96875 161.746094 54.710938 Z M 140.664062 159.242188 C 140.050781 154.554688 139.917969 149.214844 140.109375 143.121094 C 139.988281 143.039062 139.867188 142.953125 139.757812 142.859375 C 139.625 143.035156 139.496094 143.199219 139.363281 143.355469 C 139.1875 149.476562 139.328125 154.847656 139.96875 159.566406 C 140.078125 160.414062 140.210938 161.242188 140.355469 162.046875 L 140.921875 161.945312 L 141.078125 161.917969 C 140.914062 161.046875 140.777344 160.152344 140.664062 159.242188 Z M 131.949219 160.871094 C 130.589844 155.441406 129.714844 149.933594 129.320312 144.351562 C 129.003906 144.164062 128.746094 144 128.566406 143.871094 C 128.945312 149.65625 129.832031 155.363281 131.21875 160.992188 C 131.433594 161.855469 131.664062 162.726562 131.910156 163.605469 C 131.910156 163.605469 131.914062 163.628906 131.914062 163.640625 L 132.261719 163.542969 L 132.625 163.441406 C 132.386719 162.5625 132.164062 161.714844 131.949219 160.871094 Z M 140.914062 161.9375 L 140.785156 171.089844 C 141.054688 171.097656 141.296875 171.101562 141.527344 171.117188 L 141.65625 161.808594 Z M 134.289062 163.097656 L 133.554688 163.226562 L 134.617188 171.324219 L 135.355469 171.257812 Z M 119.507812 165.707031 L 118.773438 165.835938 L 121.957031 173.957031 L 122.65625 173.734375 Z M 126.878906 164.40625 L 126.144531 164.535156 L 127.960938 172.324219 L 128.695312 172.175781 Z M 118.765625 165.839844 L 119.5 165.707031 M 126.871094 164.40625 L 126.136719 164.535156 M 134.289062 163.097656 L 133.554688 163.226562 M 141.648438 161.796875 L 140.914062 161.929688 " fill-opacity="1" fill-rule="nonzero"/></g></g></g></g><g clip-path="url(#c1726a3843)"><g clip-path="url(#15767eed8b)"><g clip-path="url(#b50b9a12f3)"><g clip-path="url(#82f3530cce)"><path fill="#bdb195" d="M 147.742188 174.164062 C 130.945312 171.605469 117.058594 178.496094 117.058594 178.496094 L 116.289062 175.917969 C 131.683594 168.886719 147.613281 171.273438 147.613281 171.273438 Z M 147.742188 174.164062 " fill-opacity="1" fill-rule="nonzero"/></g></g></g></g><g clip-path="url(#cc2ffc85cf)"><g clip-path="url(#ed21209d8f)"><g clip-path="url(#586917ec19)"><g clip-path="url(#609029fe1d)"><path fill="#958b71" d="M 147.613281 171.273438 L 148.652344 194.308594 C 148.664062 194.570312 148.628906 194.824219 148.546875 195.074219 C 148.460938 195.320312 148.335938 195.546875 148.167969 195.746094 C 148 195.949219 147.804688 196.113281 147.574219 196.238281 C 147.347656 196.367188 147.101562 196.449219 146.84375 196.484375 L 129.546875 198.886719 C 129.546875 198.886719 142.109375 194.871094 144.019531 189.917969 C 145.925781 184.964844 147.613281 171.273438 147.613281 171.273438 Z M 147.613281 171.273438 " fill-opacity="1" fill-rule="nonzero"/></g></g></g></g></svg>