<svg width="30" height="31" viewBox="0 0 30 31" fill="none" xmlns="http://www.w3.org/2000/svg">
<g clip-path="url(#clip0_248_580)">
<path d="M29.9857 15.7901C29.9857 14.52 29.8836 13.5932 29.6627 12.6321H15.2988V18.3645H23.7301C23.5602 19.7891 22.6423 21.9344 20.6024 23.3761L20.5738 23.568L25.1154 27.1203L25.43 27.152C28.3198 24.4574 29.9857 20.4927 29.9857 15.7901Z" fill="#4285F4"/>
<path d="M15.2988 30.8935C19.4295 30.8935 22.8972 29.5204 25.43 27.152L20.6024 23.376C19.3105 24.2857 17.5766 24.9207 15.2988 24.9207C11.2532 24.9207 7.81945 22.2262 6.59543 18.5018L6.41602 18.5172L1.69359 22.2073L1.63184 22.3806C4.14762 27.4265 9.31523 30.8935 15.2988 30.8935Z" fill="#34A853"/>
<path d="M6.59543 18.5017C6.27246 17.5406 6.08555 16.5108 6.08555 15.4467C6.08555 14.3825 6.27246 13.3528 6.57844 12.3917L6.56988 12.187L1.78828 8.43762L1.63184 8.51276C0.594961 10.6067 0 12.9581 0 15.4467C0 17.9353 0.594961 20.2866 1.63184 22.3805L6.59543 18.5017Z" fill="#FBBC05"/>
<path d="M15.2988 5.97271C18.1716 5.97271 20.1094 7.2256 21.2143 8.27262L25.532 4.01616C22.8803 1.52752 19.4295 0 15.2988 0C9.31523 0 4.14762 3.46691 1.63184 8.51281L6.57844 12.3917C7.81945 8.66734 11.2532 5.97271 15.2988 5.97271Z" fill="#EB4335"/>
</g>
<defs>
<clipPath id="clip0_248_580">
<rect width="30" height="31" fill="white"/>
</clipPath>
</defs>
</svg>
