<svg width="20" height="20" viewBox="0 0 20 20" fill="none" xmlns="http://www.w3.org/2000/svg">
<path id="Vector" d="M15.1717 5H18.4605C18.6594 5.00017 18.8512 5.06603 18.9987 5.18479C19.1461 5.30356 19.2388 5.46679 19.2586 5.64286L19.7484 10H18.1329L17.7314 6.42857H15.1717V8.57143C15.1717 8.76087 15.0871 8.94255 14.9365 9.0765C14.7859 9.21046 14.5817 9.28571 14.3687 9.28571C14.1558 9.28571 13.9515 9.21046 13.8009 9.0765C13.6504 8.94255 13.5658 8.76087 13.5658 8.57143V6.42857H7.14221V8.57143C7.14221 8.76087 7.05761 8.94255 6.90703 9.0765C6.75645 9.21046 6.55222 9.28571 6.33926 9.28571C6.12631 9.28571 5.92208 9.21046 5.7715 9.0765C5.62091 8.94255 5.53632 8.76087 5.53632 8.57143V6.42857H2.97492L1.69021 17.8571H10.354V19.2857H0.802153C0.690004 19.2856 0.579121 19.2646 0.47665 19.2241C0.374178 19.1835 0.28239 19.1243 0.207199 19.0503C0.132008 18.9763 0.0750824 18.8891 0.0400888 18.7943C0.00509515 18.6995 -0.00719007 18.5993 0.00402491 18.5L1.44933 5.64286C1.46922 5.46679 1.56187 5.30356 1.70932 5.18479C1.85678 5.06603 2.04854 5.00017 2.24745 5H5.53632V4.50143C5.53632 2.02429 7.68179 0 10.354 0C13.0262 0 15.1717 2.02429 15.1717 4.50143V5.00143V5ZM13.5658 5V4.50143C13.5658 2.79571 12.1173 1.42857 10.354 1.42857C8.59072 1.42857 7.14221 2.79571 7.14221 4.50143V5.00143H13.5658V5ZM18.6195 15.8L16.7775 14.1629V19.2857C16.7775 19.4752 16.693 19.6568 16.5424 19.7908C16.3918 19.9247 16.1876 20 15.9746 20C15.7617 20 15.5574 19.9247 15.4068 19.7908C15.2563 19.6568 15.1717 19.4752 15.1717 19.2857V14.1629L13.3313 15.8C13.2572 15.8682 13.1686 15.9226 13.0707 15.9601C12.9727 15.9975 12.8674 16.0172 12.7607 16.018C12.6541 16.0189 12.5484 16.0008 12.4497 15.9649C12.351 15.929 12.2614 15.8759 12.186 15.8089C12.1106 15.7418 12.051 15.662 12.0106 15.5743C11.9702 15.4865 11.9499 15.3924 11.9508 15.2976C11.9518 15.2027 11.9739 15.109 12.016 15.0219C12.0581 14.9347 12.1193 14.8559 12.1959 14.79L15.4077 11.9329C15.5583 11.7989 15.7625 11.7237 15.9754 11.7237C16.1883 11.7237 16.3925 11.7989 16.5431 11.9329L19.7549 14.79C19.8316 14.8559 19.8927 14.9347 19.9348 15.0219C19.9769 15.109 19.999 15.2027 20 15.2976C20.0009 15.3924 19.9806 15.4865 19.9402 15.5743C19.8998 15.662 19.8402 15.7418 19.7648 15.8089C19.6894 15.8759 19.5998 15.929 19.5011 15.9649C19.4024 16.0008 19.2967 16.0189 19.1901 16.018C19.0835 16.0172 18.9781 15.9975 18.8801 15.9601C18.7822 15.9226 18.6936 15.8682 18.6195 15.8Z" fill="#2F8083"/>
</svg>
